<?xml version="1.0" standalone="no"?>
<!DOCTYPE svg PUBLIC "-//W3C//DTD SVG 20010904//EN"
 "http://www.w3.org/TR/2001/REC-SVG-20010904/DTD/svg10.dtd">
<svg version="1.0" xmlns="http://www.w3.org/2000/svg"
 width="174.000000pt" height="174.000000pt" viewBox="0 0 174.000000 174.000000"
 preserveAspectRatio="xMidYMid meet">
<metadata>
Created by potrace 1.14, written by Peter Selinger 2001-2017
</metadata>
<g transform="translate(0.000000,174.000000) scale(0.100000,-0.100000)"
fill="#000000" stroke="none">
<path d="M875 1170 c-27 -25 -53 -49 -57 -54 -3 -5 -32 -10 -65 -12 -170 -7
-291 -48 -293 -100 -1 -30 62 -61 167 -83 65 -14 271 -10 347 6 103 21 165 68
133 100 -4 4 -14 -2 -22 -14 -13 -18 -59 -36 -123 -48 -41 -7 -122 -9 -128 -2
-12 11 90 96 111 92 11 -2 26 -4 33 -4 7 -1 25 -13 39 -27 17 -18 29 -22 36
-15 15 15 -7 38 -51 52 -20 6 -40 13 -44 15 -3 2 23 33 58 67 35 35 64 66 64
68 0 2 -35 4 -78 4 l-77 1 -50 -46z m-99 -89 c-10 -11 -25 -17 -34 -14 -12 3
-13 2 -4 -4 9 -7 2 -19 -28 -47 l-40 -37 -30 21 c-16 11 -27 26 -24 33 5 15
64 52 64 41 0 -3 6 -2 13 3 6 5 28 10 47 12 19 2 37 5 39 7 14 13 11 1 -3 -15z"/>
<path d="M627 1203 c-12 -11 -8 -53 6 -54 6 -1 42 -2 79 -3 62 -1 70 1 105 31
l38 33 -111 0 c-61 0 -114 -3 -117 -7z"/>
<path d="M531 851 c-28 -29 -51 -54 -51 -56 0 -3 35 -5 78 -5 l78 0 47 45 c26
24 43 46 38 49 -5 3 -38 8 -74 12 l-66 6 -50 -51z"/>
<path d="M730 820 c-38 -34 -45 -31 85 -34 95 -2 115 6 113 39 -2 24 -4 25
-83 25 -76 0 -84 -2 -115 -30z"/>
<path d="M462 711 c-23 -14 -10 -46 21 -49 21 -3 26 0 21 12 -3 9 -10 16 -16
16 -5 0 -6 -4 -3 -10 3 -5 -1 -10 -9 -10 -18 0 -20 8 -7 29 5 8 14 10 21 6 9
-5 11 -4 6 3 -8 14 -16 15 -34 3z"/>
<path d="M557 704 c-13 -13 -7 -44 7 -44 8 0 17 4 20 9 7 11 -18 44 -27 35z"/>
<path d="M702 701 c-5 -3 -6 -15 -1 -26 7 -19 8 -19 8 3 1 13 5 20 11 17 6 -4
8 -10 5 -15 -3 -5 0 -12 6 -16 7 -4 9 -3 6 2 -3 6 -2 16 4 24 7 12 9 10 9 -7
0 -13 4 -23 10 -23 5 0 6 9 1 22 -7 21 -40 31 -59 19z"/>
<path d="M817 703 c-4 -3 -7 -14 -7 -24 0 -26 36 -20 37 5 2 21 2 21 -14 1
-15 -20 -15 -20 -8 3 6 22 4 27 -8 15z"/>
<path d="M896 701 c-3 -5 4 -11 15 -14 13 -4 18 -10 13 -18 -4 -8 -3 -10 4 -5
7 4 12 10 12 14 0 12 -39 32 -44 23z"/>
<path d="M980 698 c0 -7 4 -19 9 -27 6 -9 9 -5 9 13 0 14 -4 26 -9 26 -5 0 -9
-6 -9 -12z"/>
<path d="M1052 701 c-8 -5 -6 -12 8 -24 19 -16 20 -16 17 3 -4 25 -10 31 -25
21z"/>
<path d="M630 678 c0 -19 2 -20 10 -8 13 19 13 30 0 30 -5 0 -10 -10 -10 -22z"/>
<path d="M890 669 c0 -5 5 -7 10 -4 6 3 10 8 10 11 0 2 -4 4 -10 4 -5 0 -10
-5 -10 -11z"/>
<path d="M386 604 c-7 -18 -8 -60 -2 -53 7 6 17 69 12 69 -2 0 -7 -7 -10 -16z"/>
<path d="M12 580 c1 -23 4 -27 13 -20 7 6 11 20 8 30 -8 31 -22 24 -21 -10z"/>
<path d="M50 586 c-13 -36 -13 -41 4 -27 11 9 15 9 19 -1 3 -7 4 -1 3 15 -4
39 -14 44 -26 13z"/>
<path d="M610 582 c0 -18 4 -32 9 -32 4 0 7 12 5 26 -4 38 -14 42 -14 6z"/>
<path d="M1129 603 c-8 -49 -7 -52 17 -37 13 9 20 22 17 30 -5 15 -32 20 -34
7z m25 -12 c3 -5 -1 -11 -9 -14 -9 -4 -12 -1 -8 9 6 16 10 17 17 5z"/>
<path d="M1390 587 c0 -15 -5 -27 -11 -27 -6 0 -9 7 -5 15 3 8 1 15 -5 15 -19
0 -4 -35 16 -38 16 -2 20 2 20 23 -2 34 -15 45 -15 12z"/>
<path d="M213 593 c-16 -6 -17 -30 -1 -39 7 -5 9 -2 5 8 -3 9 0 21 6 27 12 12
10 13 -10 4z"/>
<path d="M528 588 c-7 -19 2 -38 17 -38 20 0 25 14 13 30 -8 12 -9 11 -4 -3 4
-12 2 -17 -6 -14 -7 2 -12 11 -10 21 3 19 -4 22 -10 4z"/>
<path d="M763 574 c0 -23 1 -24 9 -10 7 12 7 21 0 28 -6 6 -9 0 -9 -18z"/>
<path d="M893 592 c-6 -4 -7 -15 -2 -27 7 -18 8 -18 8 4 1 24 1 24 16 5 12
-16 14 -17 15 -3 0 19 -21 31 -37 21z"/>
<path d="M1010 580 c-1 -14 -2 -29 -1 -35 1 -5 -8 1 -19 15 -16 20 -20 22 -20
8 0 -10 5 -18 11 -18 5 0 8 -4 5 -9 -4 -5 2 -8 11 -7 19 3 27 25 20 54 -3 12
-5 10 -7 -8z"/>
<path d="M1213 583 c-3 -10 -8 -22 -10 -28 -3 -5 3 -1 11 9 16 20 21 36 11 36
-3 0 -8 -8 -12 -17z"/>
<path d="M1302 586 c1 -10 -3 -21 -10 -23 -8 -3 -10 1 -6 14 6 14 4 15 -6 6
-16 -14 -5 -33 20 -33 14 0 18 6 15 21 -3 12 -7 24 -11 28 -3 3 -4 -3 -2 -13z"/>
<path d="M1626 574 c4 -37 11 -39 12 -4 0 16 -3 30 -7 30 -5 0 -7 -12 -5 -26z"/>
<path d="M128 578 c9 -9 15 -9 24 0 9 9 7 12 -12 12 -19 0 -21 -3 -12 -12z"/>
<path d="M234 579 c-3 -6 -2 -15 3 -20 5 -5 9 -1 10 11 2 22 -2 25 -13 9z"/>
<path d="M290 573 c0 -13 5 -23 10 -23 13 0 13 11 0 30 -8 12 -10 11 -10 -7z"/>
<path d="M447 570 c-4 -15 0 -20 15 -20 18 0 19 2 7 17 -10 11 -10 14 -1 9 6
-4 12 -2 12 3 0 19 -28 12 -33 -9z"/>
<path d="M674 573 c2 -9 8 -19 14 -21 6 -2 8 5 5 17 -6 25 -22 28 -19 4z"/>
<path d="M706 582 c-2 -4 -1 -14 4 -22 7 -11 9 -9 7 8 -1 24 -3 26 -11 14z"/>
<path d="M832 570 c0 -14 2 -19 5 -12 2 6 2 18 0 25 -3 6 -5 1 -5 -13z"/>
<path d="M1480 575 c-7 -8 -16 -12 -21 -9 -5 3 -9 0 -9 -5 0 -6 10 -11 23 -11
16 0 23 6 23 20 0 24 0 24 -16 5z"/>
<path d="M1538 578 c-8 -20 20 -34 36 -18 8 8 6 9 -6 5 -11 -4 -17 -1 -20 12
-3 16 -4 16 -10 1z"/>
<path d="M1680 586 c0 -2 7 -6 15 -10 8 -3 15 -1 15 4 0 6 -7 10 -15 10 -8 0
-15 -2 -15 -4z"/>
<path d="M120 558 c0 -4 9 -8 20 -8 11 0 20 4 20 8 0 4 -9 8 -20 8 -11 0 -20
-4 -20 -8z"/>
<path d="M320 559 c0 -5 5 -7 10 -4 6 3 10 8 10 11 0 2 -4 4 -10 4 -5 0 -10
-5 -10 -11z"/>
<path d="M1684 558 c-3 -4 4 -8 15 -8 11 0 22 4 26 9 3 6 -4 9 -16 8 -11 -1
-23 -5 -25 -9z"/>
</g>
</svg>
